<mxfile host="65bd71144e">
    <diagram id="STNWzKey5gT1pbEaQYfi" name="Page-1">
        <mxGraphModel dx="598" dy="601" grid="1" gridSize="10" guides="1" tooltips="1" connect="1" arrows="1" fold="1" page="1" pageScale="1" pageWidth="827" pageHeight="1169" math="0" shadow="0">
            <root>
                <mxCell id="0"/>
                <mxCell id="1" parent="0"/>
                <mxCell id="10" value="My First Web Page With a Compound if StatementÂ " style="swimlane;startSize=60;" parent="1" vertex="1">
                    <mxGeometry x="70" y="70" width="490" height="380" as="geometry"/>
                </mxCell>
                <mxCell id="11" value="" style="line;strokeWidth=4;html=1;perimeter=backbonePerimeter;points=[];outlineConnect=0;" parent="10" vertex="1">
                    <mxGeometry x="30" y="60" width="250" height="120" as="geometry"/>
                </mxCell>
                <mxCell id="15" value="&lt;span style=&quot;text-align: left&quot;&gt;Select your age:&lt;/span&gt;" style="text;html=1;strokeColor=none;fillColor=none;align=center;verticalAlign=middle;whiteSpace=wrap;rounded=0;" vertex="1" parent="10">
                    <mxGeometry x="30" y="70" width="90" height="30" as="geometry"/>
                </mxCell>
                <mxCell id="16" value="?" style="text;html=1;strokeColor=none;fillColor=none;align=center;verticalAlign=middle;whiteSpace=wrap;rounded=0;" vertex="1" parent="10">
                    <mxGeometry x="10" y="90" width="60" height="30" as="geometry"/>
                </mxCell>
                <mxCell id="17" value="Chose day of week" style="text;html=1;strokeColor=none;fillColor=none;align=center;verticalAlign=middle;whiteSpace=wrap;rounded=0;" vertex="1" parent="10">
                    <mxGeometry x="20" y="130" width="110" height="30" as="geometry"/>
                </mxCell>
                <mxCell id="18" value="" style="rounded=0;whiteSpace=wrap;html=1;" vertex="1" parent="10">
                    <mxGeometry x="140" y="135" width="80" height="20" as="geometry"/>
                </mxCell>
                <mxCell id="19" value="Calulate" style="text;html=1;strokeColor=none;fillColor=none;align=center;verticalAlign=middle;whiteSpace=wrap;rounded=0;" vertex="1" parent="10">
                    <mxGeometry x="20" y="175" width="60" height="30" as="geometry"/>
                </mxCell>
            </root>
        </mxGraphModel>
    </diagram>
</mxfile>